# xmcd CD database file generated by MAGIX_Freedb v0.9beta0
# 
# Track frame offsets:
#      150
#      12383
#      22220
#      41353
#      53314
#      72431
# 
# Disc length: 1159 seconds
# 
# Revision: 0 
# Processed by: cddbd v1.4PL0 Copyright (c) Steve Scherf et al.
# Submitted via: MAGIX_Freedb v0.9beta0
# 
DISCID=46048506
DTITLE=Various Artist - Line Dance
DYEAR=1900
DGENRE=
TTITLE0=Scooter Lee - I'll Two Step Alone
TTITLE1=Marty Stuart - Don't Be Cruel
TTITLE2=Shania Twain - Any Man Of Mine
TTITLE3=Scooter Lee - Heartbreak Hotel
TTITLE4=Dave Sheriff - Red Hot Salsa
TTITLE5=Ghost Train
EXTD=
EXTT0=Hill Billy Rock
EXTT1=Cowgirl's Twist
EXTT2=Canadian Stomp
EXTT3=Heartbreak Hotel
EXTT4=Red Hot Salsa
EXTT5=
PLAYORDER=
